<svg width="261" height="83" viewBox="0 0 261 83" fill="none" xmlns="http://www.w3.org/2000/svg">
<g clip-path="url(#clip0_4_35)">
<path fill-rule="evenodd" clip-rule="evenodd" d="M39.9376 46.6662C43.5905 49.412 48.1317 51.0399 53.0535 51.0399C56.2681 51.0399 59.3208 50.3456 62.0693 49.0989L73.0263 50.7556C73.424 50.8158 73.7952 50.6699 74.0457 50.3552C74.296 50.0404 74.3548 49.6459 74.2068 49.2718L71.1236 41.4781C73.5103 37.9759 74.9062 33.7447 74.9062 29.187C74.9062 20.77 70.1468 13.4661 63.1729 9.81578C65.5862 13.5634 66.9868 18.0246 66.9868 22.8129C66.9868 36.0893 56.2228 46.8532 42.9465 46.8532C41.9373 46.8533 40.9327 46.7907 39.9376 46.6662ZM42.9465 0.960236C55.0155 0.960236 64.7993 10.744 64.7993 22.813C64.7993 34.882 55.0155 44.6658 42.9465 44.6658C39.7319 44.6658 36.6792 43.9715 33.9307 42.7249L22.9737 44.3816C22.576 44.4417 22.2048 44.2958 21.9543 43.9811C21.7038 43.6664 21.6452 43.2718 21.7932 42.8978L24.8764 35.104C22.4897 31.602 21.0938 27.3707 21.0938 22.813C21.0938 10.744 30.8776 0.960236 42.9465 0.960236ZM46.2218 13.2427C46.523 13.2427 46.7687 13.4884 46.7687 13.7896V18.991H51.9701C52.2713 18.991 52.517 19.2367 52.517 19.5379V26.0884C52.517 26.3896 52.2713 26.6353 51.9701 26.6353H46.7687V31.8367C46.7687 32.1379 46.523 32.3836 46.2218 32.3836H39.6713C39.3701 32.3836 39.1244 32.1379 39.1244 31.8367V26.6353H33.923C33.6218 26.6353 33.3761 26.3896 33.3761 26.0884V19.5379C33.3761 19.2367 33.6218 18.991 33.923 18.991H39.1244V13.7896C39.1244 13.4884 39.3701 13.2427 39.6713 13.2427H46.2218Z" fill="#0077B6"/>
</g>
<path d="M88.9418 34.5V17.58H92.0138V31.884H100.126V34.5H88.9418ZM101.938 20.244V17.316H105.298V20.244H101.938ZM102.13 34.5V22.764H105.13V34.5H102.13ZM108.248 34.5V22.764H111.176V25.116H110.912C111.264 24.268 111.808 23.628 112.544 23.196C113.296 22.748 114.144 22.524 115.088 22.524C116.032 22.524 116.808 22.7 117.416 23.052C118.024 23.404 118.48 23.94 118.784 24.66C119.088 25.364 119.24 26.26 119.24 27.348V34.5H116.24V27.492C116.24 26.884 116.16 26.388 116 26.004C115.856 25.62 115.624 25.34 115.304 25.164C115 24.972 114.608 24.876 114.128 24.876C113.552 24.876 113.048 25.004 112.616 25.26C112.184 25.5 111.848 25.852 111.608 26.316C111.368 26.764 111.248 27.292 111.248 27.9V34.5H108.248ZM127.759 39.06C126.671 39.06 125.647 38.932 124.687 38.676C123.743 38.436 122.911 38.06 122.191 37.548L123.055 35.46C123.503 35.748 123.975 35.988 124.471 36.18C124.967 36.388 125.471 36.54 125.983 36.636C126.495 36.732 127.007 36.78 127.519 36.78C128.591 36.78 129.391 36.516 129.919 35.988C130.463 35.476 130.735 34.708 130.735 33.684V31.524H130.951C130.711 32.34 130.207 32.996 129.439 33.492C128.687 33.972 127.831 34.212 126.871 34.212C125.815 34.212 124.895 33.972 124.111 33.492C123.327 32.996 122.719 32.308 122.287 31.428C121.855 30.548 121.639 29.524 121.639 28.356C121.639 27.188 121.855 26.172 122.287 25.308C122.719 24.428 123.327 23.748 124.111 23.268C124.895 22.772 125.815 22.524 126.871 22.524C127.863 22.524 128.727 22.772 129.463 23.268C130.215 23.748 130.703 24.388 130.927 25.188H130.735V22.764H133.663V33.324C133.663 34.588 133.439 35.644 132.991 36.492C132.543 37.356 131.879 37.996 130.999 38.412C130.119 38.844 129.039 39.06 127.759 39.06ZM127.687 31.932C128.615 31.932 129.351 31.612 129.895 30.972C130.439 30.332 130.711 29.46 130.711 28.356C130.711 27.252 130.439 26.388 129.895 25.764C129.351 25.124 128.615 24.804 127.687 24.804C126.759 24.804 126.023 25.124 125.479 25.764C124.935 26.388 124.663 27.252 124.663 28.356C124.663 29.46 124.935 30.332 125.479 30.972C126.023 31.612 126.759 31.932 127.687 31.932ZM141.019 34.74C140.043 34.74 139.235 34.564 138.595 34.212C137.955 33.844 137.475 33.3 137.155 32.58C136.851 31.86 136.699 30.964 136.699 29.892V22.764H139.699V29.94C139.699 30.484 139.771 30.94 139.915 31.308C140.075 31.676 140.307 31.948 140.611 32.124C140.931 32.3 141.331 32.388 141.811 32.388C142.355 32.388 142.827 32.268 143.227 32.028C143.643 31.772 143.963 31.42 144.187 30.972C144.427 30.508 144.547 29.972 144.547 29.364V22.764H147.547V34.5H144.619V32.052H144.955C144.619 32.916 144.107 33.58 143.419 34.044C142.747 34.508 141.947 34.74 141.019 34.74ZM154.533 34.74C153.685 34.74 152.925 34.58 152.253 34.26C151.597 33.924 151.077 33.476 150.693 32.916C150.325 32.356 150.141 31.724 150.141 31.02C150.141 30.156 150.365 29.476 150.813 28.98C151.261 28.468 151.989 28.1 152.997 27.876C154.005 27.652 155.357 27.54 157.053 27.54H158.253V29.268H157.077C156.325 29.268 155.693 29.3 155.181 29.364C154.669 29.412 154.253 29.5 153.933 29.628C153.629 29.74 153.405 29.9 153.261 30.108C153.133 30.316 153.069 30.572 153.069 30.876C153.069 31.404 153.253 31.836 153.621 32.172C153.989 32.508 154.501 32.676 155.157 32.676C155.685 32.676 156.149 32.556 156.549 32.316C156.965 32.06 157.293 31.716 157.533 31.284C157.773 30.852 157.893 30.356 157.893 29.796V27.036C157.893 26.236 157.717 25.66 157.365 25.308C157.013 24.956 156.421 24.78 155.589 24.78C154.933 24.78 154.261 24.884 153.573 25.092C152.885 25.284 152.189 25.588 151.485 26.004L150.621 23.964C151.037 23.676 151.525 23.428 152.085 23.22C152.661 22.996 153.261 22.828 153.885 22.716C154.525 22.588 155.125 22.524 155.685 22.524C156.837 22.524 157.781 22.7 158.517 23.052C159.269 23.404 159.829 23.94 160.197 24.66C160.565 25.364 160.749 26.276 160.749 27.396V34.5H157.941V32.004H158.133C158.021 32.564 157.797 33.052 157.461 33.468C157.141 33.868 156.733 34.18 156.237 34.404C155.741 34.628 155.173 34.74 154.533 34.74ZM169.218 34.74C167.986 34.74 166.914 34.492 166.002 33.996C165.09 33.484 164.386 32.764 163.89 31.836C163.394 30.908 163.146 29.82 163.146 28.572C163.146 27.324 163.394 26.252 163.89 25.356C164.386 24.444 165.09 23.748 166.002 23.268C166.914 22.772 167.986 22.524 169.218 22.524C169.97 22.524 170.714 22.644 171.45 22.884C172.186 23.124 172.794 23.46 173.274 23.892L172.386 25.98C171.97 25.612 171.498 25.332 170.97 25.14C170.458 24.948 169.962 24.852 169.482 24.852C168.442 24.852 167.634 25.18 167.058 25.836C166.498 26.476 166.218 27.396 166.218 28.596C166.218 29.78 166.498 30.716 167.058 31.404C167.634 32.076 168.442 32.412 169.482 32.412C169.946 32.412 170.442 32.316 170.97 32.124C171.498 31.932 171.97 31.644 172.386 31.26L173.274 33.372C172.794 33.788 172.178 34.124 171.426 34.38C170.69 34.62 169.954 34.74 169.218 34.74ZM178.908 34.74C178.06 34.74 177.3 34.58 176.628 34.26C175.972 33.924 175.452 33.476 175.068 32.916C174.7 32.356 174.516 31.724 174.516 31.02C174.516 30.156 174.74 29.476 175.188 28.98C175.636 28.468 176.364 28.1 177.372 27.876C178.38 27.652 179.732 27.54 181.428 27.54H182.628V29.268H181.452C180.7 29.268 180.068 29.3 179.556 29.364C179.044 29.412 178.628 29.5 178.308 29.628C178.004 29.74 177.78 29.9 177.636 30.108C177.508 30.316 177.444 30.572 177.444 30.876C177.444 31.404 177.628 31.836 177.996 32.172C178.364 32.508 178.876 32.676 179.532 32.676C180.06 32.676 180.524 32.556 180.924 32.316C181.34 32.06 181.668 31.716 181.908 31.284C182.148 30.852 182.268 30.356 182.268 29.796V27.036C182.268 26.236 182.092 25.66 181.74 25.308C181.388 24.956 180.796 24.78 179.964 24.78C179.308 24.78 178.636 24.884 177.948 25.092C177.26 25.284 176.564 25.588 175.86 26.004L174.996 23.964C175.412 23.676 175.9 23.428 176.46 23.22C177.036 22.996 177.636 22.828 178.26 22.716C178.9 22.588 179.5 22.524 180.06 22.524C181.212 22.524 182.156 22.7 182.892 23.052C183.644 23.404 184.204 23.94 184.572 24.66C184.94 25.364 185.124 26.276 185.124 27.396V34.5H182.316V32.004H182.508C182.396 32.564 182.172 33.052 181.836 33.468C181.516 33.868 181.108 34.18 180.612 34.404C180.116 34.628 179.548 34.74 178.908 34.74ZM188.169 34.5V22.764H191.097V25.596H190.857C191.081 24.636 191.521 23.908 192.177 23.412C192.833 22.9 193.705 22.604 194.793 22.524L195.705 22.452L195.897 24.996L194.169 25.164C193.193 25.26 192.457 25.564 191.961 26.076C191.465 26.572 191.217 27.276 191.217 28.188V34.5H188.169ZM203.164 34.74C201.836 34.74 200.692 34.492 199.732 33.996C198.772 33.5 198.028 32.796 197.5 31.884C196.988 30.972 196.732 29.892 196.732 28.644C196.732 27.428 196.98 26.364 197.476 25.452C197.988 24.54 198.684 23.828 199.564 23.316C200.46 22.788 201.476 22.524 202.612 22.524C203.732 22.524 204.692 22.764 205.492 23.244C206.292 23.724 206.908 24.404 207.34 25.284C207.788 26.164 208.012 27.212 208.012 28.428V29.316H199.156V27.588H205.9L205.516 27.948C205.516 26.86 205.276 26.028 204.796 25.452C204.316 24.86 203.628 24.564 202.732 24.564C202.06 24.564 201.484 24.724 201.004 25.044C200.54 25.348 200.18 25.788 199.924 26.364C199.684 26.924 199.564 27.596 199.564 28.38V28.548C199.564 29.428 199.7 30.156 199.972 30.732C200.244 31.308 200.652 31.74 201.196 32.028C201.74 32.316 202.412 32.46 203.212 32.46C203.868 32.46 204.524 32.364 205.18 32.172C205.836 31.964 206.436 31.644 206.98 31.212L207.82 33.228C207.26 33.692 206.556 34.06 205.708 34.332C204.86 34.604 204.012 34.74 203.164 34.74ZM215.321 34.5L222.977 17.58H225.497L233.153 34.5H230.033L227.993 29.748L229.289 30.588H219.161L220.457 29.748L218.441 34.5H215.321ZM224.201 20.916L220.841 28.908L220.217 28.14H228.233L227.633 28.908L224.249 20.916H224.201ZM235.004 34.5V17.58H238.076V34.5H235.004Z" fill="#0077B6"/>
<path d="M1.87638 79V67.72H6.38838C7.54038 67.72 8.43638 67.976 9.07638 68.488C9.71638 69 10.0364 69.7253 10.0364 70.664C10.0364 71.368 9.82838 71.9547 9.41238 72.424C9.00704 72.8933 8.45238 73.2027 7.74838 73.352V73.128C8.28171 73.192 8.74038 73.3467 9.12438 73.592C9.50838 73.8267 9.80171 74.1413 10.0044 74.536C10.207 74.92 10.3084 75.3733 10.3084 75.896C10.3084 76.568 10.159 77.1387 9.86038 77.608C9.57238 78.0667 9.15104 78.4133 8.59638 78.648C8.04171 78.8827 7.36971 79 6.58038 79H1.87638ZM3.15638 77.944H6.45238C6.79371 77.944 7.09771 77.9173 7.36438 77.864C7.64171 77.8107 7.88171 77.7307 8.08438 77.624C8.28704 77.5067 8.45771 77.368 8.59638 77.208C8.73504 77.048 8.83638 76.856 8.90038 76.632C8.97504 76.408 9.01238 76.1573 9.01238 75.88C9.01238 75.592 8.97504 75.3413 8.90038 75.128C8.83638 74.904 8.73504 74.712 8.59638 74.552C8.45771 74.3813 8.28704 74.2427 8.08438 74.136C7.88171 74.0293 7.64171 73.9493 7.36438 73.896C7.09771 73.8427 6.79371 73.816 6.45238 73.816H3.15638V77.944ZM3.15638 72.76H6.19638C7.02838 72.76 7.65771 72.5893 8.08438 72.248C8.52171 71.9067 8.74038 71.416 8.74038 70.776C8.74038 70.1147 8.52171 69.6187 8.08438 69.288C7.65771 68.9467 7.02838 68.776 6.19638 68.776H3.15638V72.76ZM12.5129 79V71.224H13.7769V73.064H13.6169C13.7982 72.4347 14.1129 71.96 14.5609 71.64C15.0089 71.3093 15.6009 71.1173 16.3369 71.064L16.8009 71.016L16.8969 72.136L16.0809 72.232C15.3555 72.296 14.7955 72.5307 14.4009 72.936C14.0169 73.3307 13.8249 73.8747 13.8249 74.568V79H12.5129ZM18.0872 69.288V67.832H19.6873V69.288H18.0872ZM18.2473 79V71.224H19.5433V79H18.2473ZM24.926 79.144C24.2327 79.144 23.6247 78.9787 23.102 78.648C22.59 78.3173 22.19 77.8533 21.902 77.256C21.6247 76.648 21.486 75.9333 21.486 75.112C21.486 74.28 21.6247 73.5653 21.902 72.968C22.19 72.36 22.59 71.896 23.102 71.576C23.6247 71.2453 24.2327 71.08 24.926 71.08C25.63 71.08 26.2327 71.256 26.734 71.608C27.2353 71.96 27.5713 72.4347 27.742 73.032H27.566V67.72H28.862V79H27.598V77.144H27.758C27.5873 77.752 27.246 78.2373 26.734 78.6C26.2327 78.9627 25.63 79.144 24.926 79.144ZM25.198 78.104C25.934 78.104 26.5153 77.848 26.942 77.336C27.3793 76.8133 27.598 76.072 27.598 75.112C27.598 74.1413 27.3793 73.4 26.942 72.888C26.5153 72.376 25.934 72.12 25.198 72.12C24.4727 72.12 23.8913 72.376 23.454 72.888C23.0167 73.4 22.798 74.1413 22.798 75.112C22.798 76.072 23.0167 76.8133 23.454 77.336C23.8913 77.848 24.4727 78.104 25.198 78.104ZM34.7341 82.024C34.0621 82.024 33.4275 81.9333 32.8301 81.752C32.2435 81.5813 31.7208 81.32 31.2621 80.968L31.6941 80.024C32.0141 80.248 32.3288 80.4293 32.6381 80.568C32.9581 80.7173 33.2835 80.824 33.6141 80.888C33.9555 80.952 34.3075 80.984 34.6701 80.984C35.4275 80.984 35.9981 80.7813 36.3821 80.376C36.7768 79.9707 36.9741 79.384 36.9741 78.616V76.808H37.1341C36.9741 77.4267 36.6328 77.9173 36.1101 78.28C35.5981 78.6427 34.9955 78.824 34.3021 78.824C33.5875 78.824 32.9688 78.664 32.4461 78.344C31.9235 78.0133 31.5181 77.5547 31.2301 76.968C30.9528 76.3813 30.8141 75.704 30.8141 74.936C30.8141 74.168 30.9528 73.496 31.2301 72.92C31.5181 72.3333 31.9235 71.88 32.4461 71.56C32.9688 71.24 33.5875 71.08 34.3021 71.08C35.0061 71.08 35.6141 71.2613 36.1261 71.624C36.6381 71.976 36.9688 72.456 37.1181 73.064H36.9741V71.224H38.2381V78.44C38.2381 79.2293 38.1048 79.8907 37.8381 80.424C37.5821 80.9573 37.1928 81.3573 36.6701 81.624C36.1475 81.8907 35.5021 82.024 34.7341 82.024ZM34.5421 77.768C35.2888 77.768 35.8808 77.512 36.3181 77C36.7555 76.488 36.9741 75.8 36.9741 74.936C36.9741 74.072 36.7555 73.3893 36.3181 72.888C35.8808 72.376 35.2888 72.12 34.5421 72.12C33.8061 72.12 33.2195 72.376 32.7821 72.888C32.3448 73.3893 32.1261 74.072 32.1261 74.936C32.1261 75.8 32.3448 76.488 32.7821 77C33.2195 77.512 33.8061 77.768 34.5421 77.768ZM40.5091 69.288V67.832H42.1091V69.288H40.5091ZM40.6691 79V71.224H41.9651V79H40.6691ZM44.3879 79V71.224H45.6519V72.952H45.4759C45.6999 72.3333 46.0625 71.8693 46.5639 71.56C47.0759 71.24 47.6625 71.08 48.3239 71.08C48.9425 71.08 49.4545 71.192 49.8599 71.416C50.2759 71.6293 50.5852 71.9653 50.7879 72.424C50.9905 72.8827 51.0919 73.4587 51.0919 74.152V79H49.7959V74.232C49.7959 73.752 49.7319 73.3573 49.6039 73.048C49.4865 72.7387 49.2945 72.5093 49.0279 72.36C48.7719 72.2107 48.4359 72.136 48.0199 72.136C47.5505 72.136 47.1399 72.2373 46.7879 72.44C46.4359 72.6427 46.1639 72.9253 45.9719 73.288C45.7799 73.6507 45.6839 74.0773 45.6839 74.568V79H44.3879ZM56.9216 82.024C56.2496 82.024 55.615 81.9333 55.0176 81.752C54.431 81.5813 53.9083 81.32 53.4496 80.968L53.8816 80.024C54.2016 80.248 54.5163 80.4293 54.8256 80.568C55.1456 80.7173 55.471 80.824 55.8016 80.888C56.143 80.952 56.495 80.984 56.8576 80.984C57.615 80.984 58.1856 80.7813 58.5696 80.376C58.9643 79.9707 59.1616 79.384 59.1616 78.616V76.808H59.3216C59.1616 77.4267 58.8203 77.9173 58.2976 78.28C57.7856 78.6427 57.183 78.824 56.4896 78.824C55.775 78.824 55.1563 78.664 54.6336 78.344C54.111 78.0133 53.7056 77.5547 53.4176 76.968C53.1403 76.3813 53.0016 75.704 53.0016 74.936C53.0016 74.168 53.1403 73.496 53.4176 72.92C53.7056 72.3333 54.111 71.88 54.6336 71.56C55.1563 71.24 55.775 71.08 56.4896 71.08C57.1936 71.08 57.8016 71.2613 58.3136 71.624C58.8256 71.976 59.1563 72.456 59.3056 73.064H59.1616V71.224H60.4256V78.44C60.4256 79.2293 60.2923 79.8907 60.0256 80.424C59.7696 80.9573 59.3803 81.3573 58.8576 81.624C58.335 81.8907 57.6896 82.024 56.9216 82.024ZM56.7296 77.768C57.4763 77.768 58.0683 77.512 58.5056 77C58.943 76.488 59.1616 75.8 59.1616 74.936C59.1616 74.072 58.943 73.3893 58.5056 72.888C58.0683 72.376 57.4763 72.12 56.7296 72.12C55.9936 72.12 55.407 72.376 54.9696 72.888C54.5323 73.3893 54.3136 74.072 54.3136 74.936C54.3136 75.8 54.5323 76.488 54.9696 77C55.407 77.512 55.9936 77.768 56.7296 77.768ZM67.142 79V67.72H68.454V72.712H75.222V67.72H76.534V79H75.222V73.848H68.454V79H67.142ZM82.6419 79.144C81.8205 79.144 81.1112 78.984 80.5139 78.664C79.9272 78.3333 79.4685 77.8693 79.1379 77.272C78.8179 76.6747 78.6579 75.96 78.6579 75.128C78.6579 74.3173 78.8179 73.6133 79.1379 73.016C79.4579 72.408 79.8952 71.9333 80.4499 71.592C81.0152 71.2507 81.6659 71.08 82.4019 71.08C83.1059 71.08 83.7085 71.2347 84.2099 71.544C84.7112 71.8533 85.0952 72.2907 85.3619 72.856C85.6392 73.4213 85.7779 74.0987 85.7779 74.888V75.384H79.6499V74.536H84.9139L84.6579 74.744C84.6579 73.8907 84.4659 73.2293 84.0819 72.76C83.7085 72.28 83.1592 72.04 82.4339 72.04C81.8899 72.04 81.4259 72.168 81.0419 72.424C80.6685 72.6693 80.3859 73.016 80.1939 73.464C80.0019 73.9013 79.9059 74.4133 79.9059 75V75.096C79.9059 75.7467 80.0072 76.296 80.2099 76.744C80.4232 77.192 80.7379 77.5333 81.1539 77.768C81.5699 77.992 82.0659 78.104 82.6419 78.104C83.1005 78.104 83.5432 78.0347 83.9699 77.896C84.4072 77.7467 84.8179 77.5067 85.2019 77.176L85.6499 78.088C85.2979 78.408 84.8499 78.664 84.3059 78.856C83.7619 79.048 83.2072 79.144 82.6419 79.144ZM90.1015 79.144C89.5682 79.144 89.0882 79.0427 88.6615 78.84C88.2455 78.6267 87.9148 78.3387 87.6695 77.976C87.4242 77.6133 87.3015 77.208 87.3015 76.76C87.3015 76.184 87.4455 75.7307 87.7335 75.4C88.0322 75.0693 88.5175 74.8347 89.1895 74.696C89.8722 74.5573 90.8002 74.488 91.9735 74.488H92.6935V75.336H91.9895C91.3388 75.336 90.7948 75.3573 90.3575 75.4C89.9202 75.4427 89.5735 75.5173 89.3175 75.624C89.0615 75.7307 88.8802 75.8693 88.7735 76.04C88.6668 76.2107 88.6135 76.424 88.6135 76.68C88.6135 77.1173 88.7628 77.4747 89.0615 77.752C89.3708 78.0293 89.7868 78.168 90.3095 78.168C90.7362 78.168 91.1095 78.0667 91.4295 77.864C91.7602 77.6613 92.0162 77.384 92.1975 77.032C92.3895 76.68 92.4855 76.2747 92.4855 75.816V73.992C92.4855 73.3307 92.3522 72.856 92.0855 72.568C91.8188 72.2693 91.3815 72.12 90.7735 72.12C90.3042 72.12 89.8508 72.1893 89.4135 72.328C88.9762 72.456 88.5282 72.6693 88.0695 72.968L87.6215 72.024C87.8988 71.832 88.2135 71.6667 88.5655 71.528C88.9175 71.3787 89.2855 71.2667 89.6695 71.192C90.0535 71.1173 90.4215 71.08 90.7735 71.08C91.4455 71.08 92.0002 71.192 92.4375 71.416C92.8748 71.6293 93.2002 71.96 93.4135 72.408C93.6268 72.8453 93.7335 73.4107 93.7335 74.104V79H92.5175V77.192H92.6615C92.5762 77.5973 92.4108 77.944 92.1655 78.232C91.9308 78.52 91.6375 78.744 91.2855 78.904C90.9335 79.064 90.5388 79.144 90.1015 79.144ZM98.5219 79.144C97.7325 79.144 97.1352 78.9093 96.7299 78.44C96.3352 77.9707 96.1379 77.2987 96.1379 76.424V67.72H97.4339V76.328C97.4339 76.7013 97.4819 77.016 97.5779 77.272C97.6845 77.528 97.8392 77.72 98.0419 77.848C98.2445 77.976 98.4952 78.04 98.7939 78.04C98.9219 78.04 99.0445 78.0347 99.1619 78.024C99.2899 78.0027 99.4072 77.976 99.5139 77.944L99.4819 79.032C99.3112 79.064 99.1459 79.0907 98.9859 79.112C98.8365 79.1333 98.6819 79.144 98.5219 79.144ZM103.852 79.144C102.934 79.144 102.246 78.8987 101.788 78.408C101.329 77.9173 101.1 77.2187 101.1 76.312V72.232H99.5796V71.224H101.1V68.84H102.396V71.224H104.86V72.232H102.396V76.184C102.396 76.792 102.524 77.256 102.78 77.576C103.036 77.8853 103.452 78.04 104.028 78.04C104.198 78.04 104.369 78.0187 104.54 77.976C104.71 77.9333 104.865 77.8907 105.004 77.848L105.228 78.84C105.089 78.9147 104.886 78.984 104.62 79.048C104.353 79.112 104.097 79.144 103.852 79.144ZM106.325 79V67.72H107.621V72.952H107.413C107.637 72.3333 108 71.8693 108.501 71.56C109.013 71.24 109.6 71.08 110.261 71.08C110.88 71.08 111.392 71.192 111.797 71.416C112.213 71.64 112.523 71.9813 112.725 72.44C112.928 72.888 113.029 73.4587 113.029 74.152V79H111.733V74.232C111.733 73.752 111.669 73.3573 111.541 73.048C111.424 72.7387 111.232 72.5093 110.965 72.36C110.709 72.2107 110.373 72.136 109.957 72.136C109.488 72.136 109.077 72.2373 108.725 72.44C108.373 72.6427 108.101 72.9253 107.909 73.288C107.717 73.6507 107.621 74.0773 107.621 74.568V79H106.325ZM118.715 79.144C117.936 79.144 117.264 78.9733 116.699 78.632C116.134 78.2907 115.696 77.816 115.387 77.208C115.088 76.5893 114.939 75.8747 114.939 75.064C114.939 74.2427 115.088 73.5333 115.387 72.936C115.696 72.3387 116.134 71.88 116.699 71.56C117.264 71.24 117.936 71.08 118.715 71.08C119.195 71.08 119.67 71.1653 120.139 71.336C120.608 71.5067 120.998 71.7467 121.307 72.056L120.859 73C120.55 72.7013 120.208 72.4827 119.835 72.344C119.472 72.2053 119.126 72.136 118.795 72.136C117.984 72.136 117.36 72.392 116.923 72.904C116.486 73.4053 116.267 74.1307 116.267 75.08C116.267 76.008 116.486 76.744 116.923 77.288C117.36 77.8213 117.984 78.088 118.795 78.088C119.126 78.088 119.472 78.0187 119.835 77.88C120.208 77.7413 120.55 77.5173 120.859 77.208L121.307 78.152C120.998 78.4613 120.603 78.7067 120.123 78.888C119.654 79.0587 119.184 79.144 118.715 79.144ZM125.211 79.144C124.678 79.144 124.198 79.0427 123.771 78.84C123.355 78.6267 123.024 78.3387 122.779 77.976C122.534 77.6133 122.411 77.208 122.411 76.76C122.411 76.184 122.555 75.7307 122.843 75.4C123.142 75.0693 123.627 74.8347 124.299 74.696C124.982 74.5573 125.91 74.488 127.083 74.488H127.803V75.336H127.099C126.448 75.336 125.904 75.3573 125.467 75.4C125.03 75.4427 124.683 75.5173 124.427 75.624C124.171 75.7307 123.99 75.8693 123.883 76.04C123.776 76.2107 123.723 76.424 123.723 76.68C123.723 77.1173 123.872 77.4747 124.171 77.752C124.48 78.0293 124.896 78.168 125.419 78.168C125.846 78.168 126.219 78.0667 126.539 77.864C126.87 77.6613 127.126 77.384 127.307 77.032C127.499 76.68 127.595 76.2747 127.595 75.816V73.992C127.595 73.3307 127.462 72.856 127.195 72.568C126.928 72.2693 126.491 72.12 125.883 72.12C125.414 72.12 124.96 72.1893 124.523 72.328C124.086 72.456 123.638 72.6693 123.179 72.968L122.731 72.024C123.008 71.832 123.323 71.6667 123.675 71.528C124.027 71.3787 124.395 71.2667 124.779 71.192C125.163 71.1173 125.531 71.08 125.883 71.08C126.555 71.08 127.11 71.192 127.547 71.416C127.984 71.6293 128.31 71.96 128.523 72.408C128.736 72.8453 128.843 73.4107 128.843 74.104V79H127.627V77.192H127.771C127.686 77.5973 127.52 77.944 127.275 78.232C127.04 78.52 126.747 78.744 126.395 78.904C126.043 79.064 125.648 79.144 125.211 79.144ZM131.247 79V71.224H132.511V73.064H132.351C132.533 72.4347 132.847 71.96 133.295 71.64C133.743 71.3093 134.335 71.1173 135.071 71.064L135.535 71.016L135.631 72.136L134.815 72.232C134.09 72.296 133.53 72.5307 133.135 72.936C132.751 73.3307 132.559 73.8747 132.559 74.568V79H131.247ZM140.392 79.144C139.571 79.144 138.861 78.984 138.264 78.664C137.677 78.3333 137.219 77.8693 136.888 77.272C136.568 76.6747 136.408 75.96 136.408 75.128C136.408 74.3173 136.568 73.6133 136.888 73.016C137.208 72.408 137.645 71.9333 138.2 71.592C138.765 71.2507 139.416 71.08 140.152 71.08C140.856 71.08 141.459 71.2347 141.96 71.544C142.461 71.8533 142.845 72.2907 143.112 72.856C143.389 73.4213 143.528 74.0987 143.528 74.888V75.384H137.4V74.536H142.664L142.408 74.744C142.408 73.8907 142.216 73.2293 141.832 72.76C141.459 72.28 140.909 72.04 140.184 72.04C139.64 72.04 139.176 72.168 138.792 72.424C138.419 72.6693 138.136 73.016 137.944 73.464C137.752 73.9013 137.656 74.4133 137.656 75V75.096C137.656 75.7467 137.757 76.296 137.96 76.744C138.173 77.192 138.488 77.5333 138.904 77.768C139.32 77.992 139.816 78.104 140.392 78.104C140.851 78.104 141.293 78.0347 141.72 77.896C142.157 77.7467 142.568 77.5067 142.952 77.176L143.4 78.088C143.048 78.408 142.6 78.664 142.056 78.856C141.512 79.048 140.957 79.144 140.392 79.144ZM149.689 79V67.72H151.001V77.848H156.745V79H149.689ZM160.648 79.144C160.115 79.144 159.635 79.0427 159.208 78.84C158.792 78.6267 158.462 78.3387 158.216 77.976C157.971 77.6133 157.848 77.208 157.848 76.76C157.848 76.184 157.992 75.7307 158.28 75.4C158.579 75.0693 159.064 74.8347 159.736 74.696C160.419 74.5573 161.347 74.488 162.52 74.488H163.24V75.336H162.536C161.886 75.336 161.342 75.3573 160.904 75.4C160.467 75.4427 160.12 75.5173 159.864 75.624C159.608 75.7307 159.427 75.8693 159.32 76.04C159.214 76.2107 159.16 76.424 159.16 76.68C159.16 77.1173 159.31 77.4747 159.608 77.752C159.918 78.0293 160.334 78.168 160.856 78.168C161.283 78.168 161.656 78.0667 161.976 77.864C162.307 77.6613 162.563 77.384 162.744 77.032C162.936 76.68 163.032 76.2747 163.032 75.816V73.992C163.032 73.3307 162.899 72.856 162.632 72.568C162.366 72.2693 161.928 72.12 161.32 72.12C160.851 72.12 160.398 72.1893 159.96 72.328C159.523 72.456 159.075 72.6693 158.616 72.968L158.168 72.024C158.446 71.832 158.76 71.6667 159.112 71.528C159.464 71.3787 159.832 71.2667 160.216 71.192C160.6 71.1173 160.968 71.08 161.32 71.08C161.992 71.08 162.547 71.192 162.984 71.416C163.422 71.6293 163.747 71.96 163.96 72.408C164.174 72.8453 164.28 73.4107 164.28 74.104V79H163.064V77.192H163.208C163.123 77.5973 162.958 77.944 162.712 78.232C162.478 78.52 162.184 78.744 161.832 78.904C161.48 79.064 161.086 79.144 160.648 79.144ZM166.685 79V71.224H167.949V72.952H167.773C167.997 72.3333 168.359 71.8693 168.861 71.56C169.373 71.24 169.959 71.08 170.621 71.08C171.239 71.08 171.751 71.192 172.157 71.416C172.573 71.6293 172.882 71.9653 173.085 72.424C173.287 72.8827 173.389 73.4587 173.389 74.152V79H172.093V74.232C172.093 73.752 172.029 73.3573 171.901 73.048C171.783 72.7387 171.591 72.5093 171.325 72.36C171.069 72.2107 170.733 72.136 170.317 72.136C169.847 72.136 169.437 72.2373 169.085 72.44C168.733 72.6427 168.461 72.9253 168.269 73.288C168.077 73.6507 167.981 74.0773 167.981 74.568V79H166.685ZM179.219 82.024C178.547 82.024 177.912 81.9333 177.315 81.752C176.728 81.5813 176.205 81.32 175.747 80.968L176.179 80.024C176.499 80.248 176.813 80.4293 177.123 80.568C177.443 80.7173 177.768 80.824 178.099 80.888C178.44 80.952 178.792 80.984 179.155 80.984C179.912 80.984 180.483 80.7813 180.867 80.376C181.261 79.9707 181.459 79.384 181.459 78.616V76.808H181.619C181.459 77.4267 181.117 77.9173 180.595 78.28C180.083 78.6427 179.48 78.824 178.786 78.824C178.072 78.824 177.453 78.664 176.931 78.344C176.408 78.0133 176.003 77.5547 175.715 76.968C175.437 76.3813 175.299 75.704 175.299 74.936C175.299 74.168 175.437 73.496 175.715 72.92C176.003 72.3333 176.408 71.88 176.931 71.56C177.453 71.24 178.072 71.08 178.786 71.08C179.491 71.08 180.099 71.2613 180.611 71.624C181.123 71.976 181.453 72.456 181.603 73.064H181.459V71.224H182.723V78.44C182.723 79.2293 182.589 79.8907 182.323 80.424C182.067 80.9573 181.677 81.3573 181.155 81.624C180.632 81.8907 179.987 82.024 179.219 82.024ZM179.027 77.768C179.773 77.768 180.365 77.512 180.803 77C181.24 76.488 181.459 75.8 181.459 74.936C181.459 74.072 181.24 73.3893 180.803 72.888C180.365 72.376 179.773 72.12 179.027 72.12C178.291 72.12 177.704 72.376 177.267 72.888C176.829 73.3893 176.611 74.072 176.611 74.936C176.611 75.8 176.829 76.488 177.267 77C177.704 77.512 178.291 77.768 179.027 77.768ZM187.906 79.144C187.276 79.144 186.754 79.032 186.338 78.808C185.932 78.5733 185.623 78.2267 185.41 77.768C185.207 77.3093 185.106 76.7387 185.106 76.056V71.224H186.402V76.04C186.402 76.4987 186.46 76.8827 186.578 77.192C186.706 77.4907 186.903 77.7147 187.17 77.864C187.436 78.0027 187.767 78.072 188.161 78.072C188.61 78.072 188.999 77.9707 189.33 77.768C189.66 77.5653 189.922 77.2827 190.114 76.92C190.306 76.5573 190.402 76.1307 190.402 75.64V71.224H191.698V79H190.434V77.208H190.642C190.428 77.8373 190.076 78.3173 189.586 78.648C189.106 78.9787 188.546 79.144 187.906 79.144ZM196.57 79.144C196.037 79.144 195.557 79.0427 195.13 78.84C194.714 78.6267 194.384 78.3387 194.138 77.976C193.893 77.6133 193.77 77.208 193.77 76.76C193.77 76.184 193.914 75.7307 194.202 75.4C194.501 75.0693 194.986 74.8347 195.658 74.696C196.341 74.5573 197.269 74.488 198.442 74.488H199.162V75.336H198.458C197.808 75.336 197.264 75.3573 196.826 75.4C196.389 75.4427 196.042 75.5173 195.786 75.624C195.53 75.7307 195.349 75.8693 195.242 76.04C195.136 76.2107 195.082 76.424 195.082 76.68C195.082 77.1173 195.232 77.4747 195.53 77.752C195.84 78.0293 196.256 78.168 196.778 78.168C197.205 78.168 197.578 78.0667 197.898 77.864C198.229 77.6613 198.485 77.384 198.666 77.032C198.858 76.68 198.954 76.2747 198.954 75.816V73.992C198.954 73.3307 198.821 72.856 198.554 72.568C198.288 72.2693 197.85 72.12 197.242 72.12C196.773 72.12 196.32 72.1893 195.882 72.328C195.445 72.456 194.997 72.6693 194.538 72.968L194.09 72.024C194.368 71.832 194.682 71.6667 195.034 71.528C195.386 71.3787 195.754 71.2667 196.138 71.192C196.522 71.1173 196.89 71.08 197.242 71.08C197.914 71.08 198.469 71.192 198.906 71.416C199.344 71.6293 199.669 71.96 199.882 72.408C200.096 72.8453 200.202 73.4107 200.202 74.104V79H198.986V77.192H199.13C199.045 77.5973 198.88 77.944 198.634 78.232C198.4 78.52 198.106 78.744 197.754 78.904C197.402 79.064 197.008 79.144 196.57 79.144ZM206.047 82.024C205.375 82.024 204.74 81.9333 204.143 81.752C203.556 81.5813 203.033 81.32 202.575 80.968L203.007 80.024C203.327 80.248 203.641 80.4293 203.951 80.568C204.271 80.7173 204.596 80.824 204.927 80.888C205.268 80.952 205.62 80.984 205.983 80.984C206.74 80.984 207.311 80.7813 207.695 80.376C208.089 79.9707 208.287 79.384 208.287 78.616V76.808H208.447C208.287 77.4267 207.945 77.9173 207.423 78.28C206.911 78.6427 206.308 78.824 205.615 78.824C204.9 78.824 204.281 78.664 203.759 78.344C203.236 78.0133 202.831 77.5547 202.543 76.968C202.265 76.3813 202.127 75.704 202.127 74.936C202.127 74.168 202.265 73.496 202.543 72.92C202.831 72.3333 203.236 71.88 203.759 71.56C204.281 71.24 204.9 71.08 205.615 71.08C206.319 71.08 206.927 71.2613 207.439 71.624C207.951 71.976 208.281 72.456 208.431 73.064H208.287V71.224H209.551V78.44C209.551 79.2293 209.417 79.8907 209.151 80.424C208.895 80.9573 208.505 81.3573 207.983 81.624C207.46 81.8907 206.815 82.024 206.047 82.024ZM205.855 77.768C206.601 77.768 207.193 77.512 207.631 77C208.068 76.488 208.287 75.8 208.287 74.936C208.287 74.072 208.068 73.3893 207.631 72.888C207.193 72.376 206.601 72.12 205.855 72.12C205.119 72.12 204.532 72.376 204.095 72.888C203.657 73.3893 203.439 74.072 203.439 74.936C203.439 75.8 203.657 76.488 204.095 77C204.532 77.512 205.119 77.768 205.855 77.768ZM215.486 79.144C214.664 79.144 213.955 78.984 213.358 78.664C212.771 78.3333 212.312 77.8693 211.982 77.272C211.662 76.6747 211.502 75.96 211.502 75.128C211.502 74.3173 211.662 73.6133 211.982 73.016C212.302 72.408 212.739 71.9333 213.294 71.592C213.859 71.2507 214.51 71.08 215.246 71.08C215.95 71.08 216.552 71.2347 217.054 71.544C217.555 71.8533 217.939 72.2907 218.206 72.856C218.483 73.4213 218.622 74.0987 218.622 74.888V75.384H212.494V74.536H217.758L217.502 74.744C217.502 73.8907 217.31 73.2293 216.926 72.76C216.552 72.28 216.003 72.04 215.278 72.04C214.734 72.04 214.27 72.168 213.886 72.424C213.512 72.6693 213.23 73.016 213.038 73.464C212.846 73.9013 212.75 74.4133 212.75 75V75.096C212.75 75.7467 212.851 76.296 213.054 76.744C213.267 77.192 213.582 77.5333 213.998 77.768C214.414 77.992 214.91 78.104 215.486 78.104C215.944 78.104 216.387 78.0347 216.814 77.896C217.251 77.7467 217.662 77.5067 218.046 77.176L218.494 78.088C218.142 78.408 217.694 78.664 217.15 78.856C216.606 79.048 216.051 79.144 215.486 79.144ZM229.935 79.144C228.729 79.144 227.711 78.9147 226.879 78.456C226.057 77.9973 225.433 77.336 225.007 76.472C224.58 75.608 224.367 74.5733 224.367 73.368C224.367 72.1733 224.58 71.144 225.007 70.28C225.433 69.416 226.047 68.7493 226.847 68.28C227.647 67.8107 228.612 67.576 229.743 67.576C230.276 67.576 230.777 67.6293 231.247 67.736C231.727 67.8427 232.169 68.0027 232.575 68.216C232.991 68.4187 233.353 68.6747 233.663 68.984L233.151 70.04C232.639 69.592 232.111 69.2667 231.567 69.064C231.023 68.8613 230.409 68.76 229.727 68.76C228.436 68.76 227.449 69.16 226.767 69.96C226.095 70.76 225.759 71.896 225.759 73.368C225.759 74.8613 226.105 76.0027 226.799 76.792C227.503 77.5813 228.559 77.976 229.967 77.976C230.479 77.976 230.98 77.928 231.471 77.832C231.961 77.7253 232.425 77.5813 232.863 77.4L232.575 78.152V74.168H229.711V73.128H233.711V78.344C233.423 78.4933 233.065 78.632 232.639 78.76C232.212 78.8773 231.764 78.968 231.295 79.032C230.825 79.1067 230.372 79.144 229.935 79.144ZM238.664 79.144C238.131 79.144 237.651 79.0427 237.224 78.84C236.808 78.6267 236.477 78.3387 236.232 77.976C235.987 77.6133 235.864 77.208 235.864 76.76C235.864 76.184 236.008 75.7307 236.296 75.4C236.595 75.0693 237.08 74.8347 237.752 74.696C238.435 74.5573 239.363 74.488 240.536 74.488H241.256V75.336H240.552C239.901 75.336 239.357 75.3573 238.92 75.4C238.483 75.4427 238.136 75.5173 237.88 75.624C237.624 75.7307 237.443 75.8693 237.336 76.04C237.229 76.2107 237.176 76.424 237.176 76.68C237.176 77.1173 237.325 77.4747 237.624 77.752C237.933 78.0293 238.349 78.168 238.872 78.168C239.299 78.168 239.672 78.0667 239.992 77.864C240.323 77.6613 240.579 77.384 240.76 77.032C240.952 76.68 241.048 76.2747 241.048 75.816V73.992C241.048 73.3307 240.915 72.856 240.648 72.568C240.381 72.2693 239.944 72.12 239.336 72.12C238.867 72.12 238.413 72.1893 237.976 72.328C237.539 72.456 237.091 72.6693 236.632 72.968L236.184 72.024C236.461 71.832 236.776 71.6667 237.128 71.528C237.48 71.3787 237.848 71.2667 238.232 71.192C238.616 71.1173 238.984 71.08 239.336 71.08C240.008 71.08 240.563 71.192 241 71.416C241.437 71.6293 241.763 71.96 241.976 72.408C242.189 72.8453 242.296 73.4107 242.296 74.104V79H241.08V77.192H241.224C241.139 77.5973 240.973 77.944 240.728 78.232C240.493 78.52 240.2 78.744 239.848 78.904C239.496 79.064 239.101 79.144 238.664 79.144ZM244.7 81.88V71.224H245.964V73.064H245.804C245.975 72.456 246.311 71.976 246.812 71.624C247.324 71.2613 247.932 71.08 248.636 71.08C249.33 71.08 249.932 71.2453 250.444 71.576C250.967 71.896 251.367 72.36 251.644 72.968C251.932 73.5653 252.076 74.28 252.076 75.112C252.076 75.9333 251.932 76.648 251.644 77.256C251.367 77.8533 250.972 78.3173 250.46 78.648C249.948 78.9787 249.34 79.144 248.636 79.144C247.932 79.144 247.33 78.968 246.828 78.616C246.327 78.2533 245.986 77.7733 245.804 77.176H245.996V81.88H244.7ZM248.364 78.104C249.1 78.104 249.682 77.848 250.108 77.336C250.546 76.8133 250.764 76.072 250.764 75.112C250.764 74.1413 250.546 73.4 250.108 72.888C249.682 72.376 249.1 72.12 248.364 72.12C247.639 72.12 247.058 72.376 246.62 72.888C246.183 73.4 245.964 74.1413 245.964 75.112C245.964 76.072 246.183 76.8133 246.62 77.336C247.058 77.848 247.639 78.104 248.364 78.104ZM256.653 79.144C256.247 79.144 255.853 79.1013 255.469 79.016C255.095 78.9413 254.743 78.8347 254.413 78.696C254.093 78.5467 253.815 78.3707 253.581 78.168L253.997 77.256C254.253 77.4587 254.53 77.6293 254.829 77.768C255.127 77.896 255.431 77.992 255.741 78.056C256.05 78.12 256.365 78.152 256.685 78.152C257.293 78.152 257.751 78.04 258.061 77.816C258.37 77.592 258.525 77.288 258.525 76.904C258.525 76.6053 258.423 76.3707 258.221 76.2C258.018 76.0187 257.698 75.88 257.261 75.784L255.805 75.464C255.133 75.3253 254.631 75.0853 254.301 74.744C253.981 74.4027 253.821 73.96 253.821 73.416C253.821 72.936 253.943 72.5253 254.189 72.184C254.445 71.832 254.802 71.56 255.261 71.368C255.719 71.176 256.253 71.08 256.861 71.08C257.223 71.08 257.57 71.1173 257.901 71.192C258.231 71.2667 258.541 71.3787 258.829 71.528C259.127 71.6667 259.383 71.8427 259.597 72.056L259.165 72.968C258.962 72.776 258.733 72.616 258.477 72.488C258.221 72.3493 257.954 72.248 257.677 72.184C257.41 72.1093 257.138 72.072 256.861 72.072C256.263 72.072 255.81 72.1893 255.501 72.424C255.191 72.6587 255.037 72.968 255.037 73.352C255.037 73.6507 255.133 73.896 255.325 74.088C255.517 74.28 255.815 74.4187 256.221 74.504L257.677 74.808C258.37 74.9573 258.887 75.1973 259.229 75.528C259.581 75.848 259.757 76.2853 259.757 76.84C259.757 77.3093 259.629 77.72 259.373 78.072C259.117 78.4133 258.754 78.68 258.285 78.872C257.826 79.0533 257.282 79.144 256.653 79.144Z" fill="black"/>
<defs>
<clipPath id="clip0_4_35">
<rect width="54" height="52" fill="white" transform="translate(21)"/>
</clipPath>
</defs>
</svg>
